<svg fill="none" height="70" viewBox="0 0 70 70" width="70" xmlns="http://www.w3.org/2000/svg">
    <g clip-path="url(#clip0)">
        <path d="M45.9032 0H14.7562C13.1791 0 11.896 1.28311 11.896 2.86016V7.51953H10.9894C8.89463 7.51953 7.19043 9.22373 7.19043 11.3185V21.591C7.19043 23.6856 8.89449 25.3898 10.9892 25.3898H11.896V27.5663C11.896 28.1326 12.3551 28.5917 12.9214 28.5917C13.4877 28.5917 13.9468 28.1326 13.9468 27.5663V19.8431H27.0233C29.1181 19.8431 30.8224 18.1389 30.8224 16.0441V11.3185C30.8223 9.22373 29.1181 7.51953 27.0233 7.51953H24.9468C24.3805 7.51953 23.9214 7.97863 23.9214 8.54492C23.9214 9.11121 24.3805 9.57031 24.9468 9.57031H27.0233C27.9873 9.57031 28.7716 10.3545 28.7716 11.3185V16.0441C28.7716 17.0081 27.9874 17.7923 27.0233 17.7923H10.9892C10.3593 17.7923 9.76471 17.9464 9.24121 18.2189V11.3185C9.24121 10.3545 10.0254 9.57031 10.9894 9.57031H20.1616C20.7279 9.57031 21.187 9.11121 21.187 8.54492C21.187 7.97863 20.7279 7.51953 20.1616 7.51953H13.9468V2.86016C13.9468 2.41377 14.3099 2.05078 14.7562 2.05078H45.0129C48.2781 2.05078 50.9346 4.70723 50.9346 7.97248V9.01537C50.9346 10.5926 52.2177 11.8755 53.7948 11.8755H54.8376C58.103 11.8755 60.7594 14.5321 60.7594 17.7974V67.1398C60.7594 67.5862 60.3963 67.9492 59.9499 67.9492H14.7562C14.3098 67.9492 13.9468 67.5861 13.9468 67.1398V32.3515C13.9468 31.7852 13.4877 31.3261 12.9214 31.3261C12.3551 31.3261 11.896 31.7852 11.896 32.3515V67.1398C11.896 68.717 13.1791 70 14.7562 70H59.9501C61.5272 70 62.8104 68.7169 62.8104 67.1398V16.9072C62.8104 7.58447 55.2257 0 45.9032 0V0ZM10.9892 19.8432H11.896V23.339H10.9892C10.0254 23.339 9.24121 22.5549 9.24121 21.591C9.24121 20.6272 10.0253 19.8432 10.9892 19.8432ZM54.8376 9.82488H53.7948C53.3485 9.82488 52.9853 9.46176 52.9853 9.01551V7.97262C52.9853 6.12117 52.3511 4.41547 51.2885 3.06072C55.1556 4.56996 58.2404 7.65475 59.7496 11.5218C58.3949 10.459 56.689 9.82488 54.8376 9.82488V9.82488Z"
              fill="#00B395"/>
        <path d="M55.435 34.7572C56.4861 34.7572 57.3411 33.9022 57.3411 32.8512V30.7146C57.3411 29.6635 56.4859 28.8086 55.435 28.8086H27.4735C26.4224 28.8086 25.5674 29.6636 25.5674 30.7146V32.8512C25.5674 33.9023 26.4224 34.7572 27.4735 34.7572H55.435ZM27.6182 30.8592H55.2903V32.7064H27.6182V30.8592Z"
              fill="#00B395"/>
        <path d="M17.3643 39.2216V41.3582C17.3643 42.4093 18.2193 43.2643 19.2704 43.2643H55.435C56.4861 43.2643 57.3411 42.4093 57.3411 41.3582V39.2216C57.3411 38.1705 56.4859 37.3154 55.435 37.3154H53.8457C53.2793 37.3154 52.8204 37.7745 52.8204 38.3408C52.8204 38.9071 53.2793 39.3662 53.8457 39.3662H55.2903V41.2136H19.415V39.3662H49.0604C49.6269 39.3662 50.0858 38.9071 50.0858 38.3408C50.0858 37.7745 49.6269 37.3154 49.0604 37.3154H19.2704C18.2193 37.3154 17.3643 38.1706 17.3643 39.2216V39.2216Z"
              fill="#00B395"/>
        <path d="M17.3643 49.8641C17.3643 50.9152 18.2193 51.7702 19.2704 51.7702H55.435C56.4861 51.7702 57.3411 50.9152 57.3411 49.8641V47.7274C57.3411 46.6763 56.4859 45.8213 55.435 45.8213H19.2704C18.2193 45.8213 17.3643 46.6763 17.3643 47.7274V49.8641ZM19.415 47.8721H55.2903V49.7194H19.415V47.8721Z"
              fill="#00B395"/>
        <path d="M17.3643 58.3717C17.3643 59.4228 18.2193 60.2777 19.2704 60.2777H47.2318C48.2829 60.2777 49.1378 59.4227 49.1378 58.3717V56.2351C49.1378 55.184 48.2828 54.3291 47.2318 54.3291H19.2704C18.2193 54.3291 17.3643 55.1841 17.3643 56.2351V58.3717ZM19.415 56.3797H47.0871V58.227H19.415V56.3797Z"
              fill="#00B395"/>
    </g>
    <defs>
        <clipPath id="clip0">
            <rect fill="white" height="70" width="70"/>
        </clipPath>
    </defs>
</svg>
