<svg fill="none" height="70" viewBox="0 0 70 70" width="70" xmlns="http://www.w3.org/2000/svg">
    <path d="M16.914 67.9492H12.4414C11.1222 67.9492 10.0488 66.8758 10.0488 65.5566V4.44336C10.0488 3.12416 11.1222 2.05078 12.4414 2.05078H30.2069C30.7732 2.05078 31.2323 1.02539 31.2323 1.02539C31.2323 1.02539 30.7732 0 30.2069 0H12.4414C9.99141 0 7.99805 1.99336 7.99805 4.44336V65.5566C7.99805 68.0066 9.99141 70 12.4414 70H16.914C17.4803 70 17.9394 69.5409 17.9394 68.9746C17.9394 68.4083 17.4803 67.9492 16.914 67.9492Z"
          fill="#00B395"/>
    <path d="M61.7016 14.4508L47.5512 0.300371C47.4175 0.166523 47.2308 0.0604297 47.0262 0.0198242C47.0182 0.0117578 46.8393 0 46.8262 0H34.9921C34.4258 0 33.9667 0.459102 33.9667 1.02539C33.9667 1.59168 34.4258 2.05078 34.9921 2.05078H45.8008V11.7578C45.8008 14.2078 47.7942 16.2012 50.2442 16.2012H59.9512V65.5566C59.9512 66.8758 58.8778 67.9492 57.5586 67.9492H21.6992C21.1329 67.9492 20.6738 68.4083 20.6738 68.9746C20.6738 69.5409 21.1329 70 21.6992 70H57.5586C60.0086 70 62.002 68.0066 62.002 65.5566V15.1758C62.002 14.9171 61.8978 14.6468 61.7016 14.4508ZM50.2442 14.1504C48.925 14.1504 47.8516 13.077 47.8516 11.7578V3.50082L58.5012 14.1504H50.2442Z"
          fill="#00B395"/>
    <path d="M48.1902 41.1804C47.628 40.6782 46.7644 40.7272 46.2636 41.2866C43.4174 44.4593 39.3132 46.2777 35.0003 46.2777C30.6887 46.2777 26.5831 44.4593 23.7369 41.2866C23.2334 40.7272 22.3725 40.6782 21.8103 41.1804C21.2482 41.6813 21.2018 42.5415 21.7039 43.1023C25.0672 46.8507 29.9137 48.9999 35.0003 48.9999C40.0882 48.9999 44.9347 46.8494 48.2966 43.1023C48.7987 42.5415 48.751 41.6813 48.1902 41.1804Z"
          fill="#00B395"/>
</svg>
