<svg fill="none" height="70" viewBox="0 0 70 70" width="70" xmlns="http://www.w3.org/2000/svg">
    <path d="M61.6973 62.4165L55.5807 56.2999C56.4897 54.9557 56.141 53.1858 56.4913 52.1065C56.832 51.0571 58.2206 49.7978 58.2206 48.0738C58.2206 46.3509 56.8315 45.0884 56.4913 44.0417C55.969 42.4326 56.9575 39.8878 53.7302 38.4351V3.38379C53.7302 1.51779 52.2124 0 50.3464 0H11.5871C9.72112 0 8.20333 1.51779 8.20333 3.38379V54.9108C8.20333 56.7768 9.72112 58.2946 11.5871 58.2946H30.5863L26.4644 62.4165C25.8807 63.0008 26.1942 64.0026 27.0065 64.1506L31.4146 64.9517L32.0074 69.1189C32.1259 69.9537 33.1503 70.296 33.7473 69.6994L41.903 61.5438C42.1513 61.492 42.3943 61.4322 42.6287 61.374C44.5022 60.9083 44.3612 61.1502 46.2593 61.5438C54.8111 69.9398 54.3641 69.9996 55.1396 69.9996C55.648 69.9996 56.0827 69.6257 56.1548 69.1189L56.7476 64.9517L61.1558 64.1506C61.9659 64.0032 62.2832 63.0029 61.6973 62.4165V62.4165ZM10.2541 54.9108V3.38379C10.2541 2.64893 10.8523 2.05078 11.5871 2.05078H50.3464C51.0818 2.05078 51.6794 2.64893 51.6794 3.38379V37.4658C50.818 36.7892 50.0228 35.1336 48.451 34.623C46.8766 34.1119 45.2632 35.0284 44.0808 35.0284C42.7104 35.0284 40.877 33.8396 39.0473 34.9253C37.8644 35.627 37.1872 36.9552 36.4123 37.5192C35.4617 38.2108 33.5246 38.409 32.5569 39.8846C31.6811 41.2192 32.0159 42.9768 31.6704 44.0417C31.3318 45.0836 29.9416 46.3568 29.9416 48.0738C30.0132 48.3419 29.7237 48.8407 31.0199 50.8974C31.7222 52.012 31.774 52.153 31.8717 53.534C31.9385 54.4766 32.0165 55.4267 32.5441 56.2438H11.5871C10.8523 56.2438 10.2541 55.6462 10.2541 54.9108V54.9108ZM33.7484 66.7984L33.3404 63.9305C33.2784 63.4937 32.9431 63.1455 32.5089 63.0664L29.2986 62.4827C30.7128 61.0685 32.731 59.0503 34.1842 57.5971C36.1511 58.5601 36.0652 58.0612 37.3821 59.6415C37.9248 60.2925 38.4663 60.9291 39.2252 61.3211L33.7484 66.7984ZM40.3889 59.5876C39.7705 59.4199 39.1905 58.5836 38.5993 57.9048C36.8673 55.9159 35.1172 56.1894 34.3321 55.2211C33.7639 54.5055 34.0715 52.8606 33.6213 51.4731C33.1182 49.9238 31.743 48.8674 32.04 47.7299C32.1596 47.2733 32.4987 46.751 32.7551 46.344C33.6336 44.9501 33.7943 44.4994 33.9172 42.7583C34.0678 40.6306 34.2627 40.738 36.3381 39.8637C37.5947 39.3345 38.0369 38.9243 38.9202 37.8642C40.1197 36.4265 40.2944 36.3074 42.1342 36.7646C43.8555 37.1918 44.3724 37.1758 46.0275 36.7646C47.8524 36.3106 47.9907 36.3662 49.2794 37.9096C50.3213 39.1572 50.7475 39.4327 52.2883 40.0539C52.8068 40.2627 53.5545 40.5457 53.8621 40.9682C54.3828 41.6838 54.0998 43.3164 54.5409 44.6751C54.974 46.0075 56.1698 47.1307 56.1698 48.0738C56.1698 49.0191 54.9751 50.1353 54.5409 51.4731C54.3353 52.106 54.2894 52.7586 54.2445 53.3898C54.1137 55.2462 53.9892 55.408 52.2637 56.1039C50.6551 56.7523 50.277 57.0391 49.1827 58.355C47.9944 59.7798 47.7984 59.8236 46.0275 59.3836C43.0934 58.6546 41.4073 59.8632 40.3889 59.5876V59.5876ZM55.6534 63.0664C55.2186 63.1455 54.8838 63.4937 54.8218 63.9305L54.4138 66.7984L48.937 61.3211C49.9031 60.809 50.4415 60.0159 51.1187 59.241C52.0479 58.1771 52.3967 58.3715 53.978 57.5971L58.8636 62.4827L55.6534 63.0664Z"
          fill="#1AB394"/>
    <path d="M17.528 10.0762H44.405C44.9711 10.0762 45.4304 9.61689 45.4304 9.05078C45.4304 8.48468 44.9711 8.02539 44.405 8.02539H17.528C16.9614 8.02539 16.5026 8.48468 16.5026 9.05078C16.5026 9.61689 16.9614 10.0762 17.528 10.0762V10.0762Z"
          fill="#1AB394"/>
    <path d="M17.528 18.1152H44.405C44.9711 18.1152 45.4304 17.6559 45.4304 17.0898C45.4304 16.5232 44.9711 16.0645 44.405 16.0645H17.528C16.9614 16.0645 16.5026 16.5232 16.5026 17.0898C16.5026 17.6559 16.9614 18.1152 17.528 18.1152V18.1152Z"
          fill="#1AB394"/>
    <path d="M17.528 26.1543H44.405C44.9711 26.1543 45.4304 25.695 45.4304 25.1289C45.4304 24.5623 44.9711 24.1035 44.405 24.1035H17.528C16.9614 24.1035 16.5026 24.5623 16.5026 25.1289C16.5026 25.695 16.9614 26.1543 17.528 26.1543V26.1543Z"
          fill="#1AB394"/>
    <path d="M26.7349 40.25H17.0151C16.316 40.25 15.75 40.6419 15.75 41.125C15.75 41.6085 16.316 42 17.0151 42H26.7349C27.434 42 28 41.6085 28 41.125C28 40.6419 27.434 40.25 26.7349 40.25Z"
          fill="#1AB394"/>
    <path d="M26.7349 47.25H17.0151C16.316 47.25 15.75 47.6419 15.75 48.125C15.75 48.6085 16.316 49 17.0151 49H26.7349C27.434 49 28 48.6085 28 48.125C28 47.6419 27.434 47.25 26.7349 47.25Z"
          fill="#1AB394"/>
</svg>
