<svg fill="none" height="70" viewBox="0 0 70 70" width="70" xmlns="http://www.w3.org/2000/svg">
    <g clip-path="url(#clip0)">
        <path d="M66.8652 58.6123C67.3703 57.8668 67.6667 56.9673 67.6667 56.0002C67.6667 53.4265 65.5737 51.3335 63 51.3335C60.4263 51.3335 58.3333 53.4265 58.3333 56.0002C58.3333 56.9673 58.6297 57.8668 59.1348 58.6123C57.7978 59.0813 56.7467 60.1313 56.2788 61.4683C55.9487 61.2443 55.5812 61.0798 55.1973 60.9457C55.7037 60.2002 56 59.3007 56 58.3335C56 55.7598 53.907 53.6668 51.3333 53.6668C48.7597 53.6668 46.6667 55.7598 46.6667 58.3335C46.6667 59.3007 46.963 60.2002 47.4682 60.9457C47.0855 61.0798 46.7168 61.2443 46.3867 61.4683C45.9177 60.1313 44.8677 59.0802 43.5307 58.6123C44.037 57.8668 44.3333 56.9673 44.3333 56.0002C44.3333 53.4265 42.2403 51.3335 39.6667 51.3335C37.093 51.3335 35 53.4265 35 56.0002C35 56.9673 35.2963 57.8668 35.8015 58.6123C33.9827 59.2505 32.6667 60.9655 32.6667 63.0002V66.5002C32.6667 67.1453 33.1882 67.6668 33.8333 67.6668H44.3333V68.8335C44.3333 69.4787 44.8548 70.0002 45.5 70.0002H57.1667C57.8118 70.0002 58.3333 69.4787 58.3333 68.8335V67.6668H68.8333C69.4785 67.6668 70 67.1453 70 66.5002V63.0002C70 60.9655 68.684 59.2505 66.8652 58.6123ZM39.6667 53.6668C40.9535 53.6668 42 54.7133 42 56.0002C42 57.287 40.9535 58.3335 39.6667 58.3335C38.3798 58.3335 37.3333 57.287 37.3333 56.0002C37.3333 54.7133 38.3798 53.6668 39.6667 53.6668ZM44.3333 65.3335H35V63.0002C35 61.7133 36.0465 60.6668 37.3333 60.6668H42C43.2868 60.6668 44.3333 61.7133 44.3333 63.0002V65.3335ZM51.3333 56.0002C52.6202 56.0002 53.6667 57.0467 53.6667 58.3335C53.6667 59.6203 52.6202 60.6668 51.3333 60.6668C50.0465 60.6668 49 59.6203 49 58.3335C49 57.0467 50.0465 56.0002 51.3333 56.0002ZM56 66.5002V67.6668H46.6667V66.5002V65.3335C46.6667 64.0467 47.7132 63.0002 49 63.0002H53.6667C54.9535 63.0002 56 64.0467 56 65.3335V66.5002ZM63 53.6668C64.2868 53.6668 65.3333 54.7133 65.3333 56.0002C65.3333 57.287 64.2868 58.3335 63 58.3335C61.7132 58.3335 60.6667 57.287 60.6667 56.0002C60.6667 54.7133 61.7132 53.6668 63 53.6668ZM67.6667 65.3335H58.3333V63.0002C58.3333 61.7133 59.3798 60.6668 60.6667 60.6668H65.3333C66.6202 60.6668 67.6667 61.7133 67.6667 63.0002V65.3335Z"
              fill="#1AB394"/>
        <path d="M35.8248 37.6752L29.9915 31.8418C29.7733 31.6225 29.477 31.5 29.1667 31.5H23.3333V25.6667C23.3333 25.0215 22.8118 24.5 22.1667 24.5H1.16667C0.5215 24.5 0 25.0215 0 25.6667V40.8333V49C0 49.6452 0.5215 50.1667 1.16667 50.1667H4.83233C5.35383 52.1745 7.1645 53.6667 9.33333 53.6667C11.5022 53.6667 13.3128 52.1745 13.8343 50.1667H23.499C24.0205 52.1745 25.8312 53.6667 28 53.6667C30.1688 53.6667 31.9795 52.1745 32.501 50.1667H35C35.6452 50.1667 36.1667 49.6452 36.1667 49V38.5C36.1667 38.1897 36.0442 37.8933 35.8248 37.6752ZM2.33333 26.8333H21V32.6667V39.6667H2.33333V26.8333ZM9.33333 51.3333C8.0465 51.3333 7 50.2868 7 49C7 47.7132 8.0465 46.6667 9.33333 46.6667C10.6202 46.6667 11.6667 47.7132 11.6667 49C11.6667 50.2868 10.6202 51.3333 9.33333 51.3333ZM28 51.3333C26.7132 51.3333 25.6667 50.2868 25.6667 49C25.6667 47.7132 26.7132 46.6667 28 46.6667C29.2868 46.6667 30.3333 47.7132 30.3333 49C30.3333 50.2868 29.2868 51.3333 28 51.3333ZM33.8333 47.8333H32.5185C32.4777 47.6747 32.4147 47.5253 32.3575 47.3725C32.3295 47.2978 32.3108 47.2208 32.2793 47.1473C32.1673 46.8907 32.0355 46.6445 31.8815 46.4147C31.8477 46.3633 31.8045 46.319 31.7672 46.2688C31.64 46.0927 31.5047 45.9247 31.3542 45.7683C31.2853 45.6972 31.2107 45.6353 31.1383 45.5688C31.0042 45.4463 30.8677 45.3297 30.7195 45.2235C30.6332 45.1605 30.5445 45.1033 30.4535 45.0473C30.303 44.954 30.1478 44.87 29.9857 44.793C29.89 44.7475 29.7955 44.702 29.6952 44.6623C29.5167 44.5923 29.3312 44.5387 29.1433 44.4908C29.0523 44.4675 28.966 44.4383 28.8738 44.4208C28.5903 44.3672 28.2998 44.3333 28 44.3333C27.7002 44.3333 27.4097 44.3672 27.125 44.422C27.0328 44.4395 26.9453 44.4698 26.8555 44.492C26.6665 44.5398 26.4822 44.5935 26.3037 44.6635C26.2045 44.7032 26.11 44.7487 26.0132 44.7942C25.8522 44.8712 25.6958 44.954 25.5453 45.0485C25.4543 45.1057 25.3657 45.1617 25.2793 45.2247C25.1323 45.3308 24.9947 45.4475 24.8605 45.57C24.7882 45.6365 24.7135 45.6983 24.6447 45.7695C24.4942 45.9258 24.3588 46.0938 24.2317 46.27C24.1955 46.3202 24.1523 46.3645 24.1173 46.4158C23.9633 46.6468 23.8303 46.8918 23.7195 47.1485C23.688 47.2208 23.6693 47.299 23.6413 47.3737C23.5842 47.5253 23.5212 47.6747 23.4803 47.8345H13.8507C13.8098 47.6758 13.7468 47.5265 13.6897 47.3737C13.6617 47.299 13.643 47.222 13.6115 47.1485C13.4995 46.8918 13.3677 46.6457 13.2137 46.4158C13.1798 46.3645 13.1367 46.3202 13.0993 46.27C12.9722 46.0938 12.8368 45.9258 12.6863 45.7695C12.6175 45.6983 12.5428 45.6365 12.4705 45.57C12.3363 45.4475 12.1998 45.3308 12.0517 45.2247C11.9653 45.1617 11.8767 45.1045 11.7857 45.0485C11.6352 44.9552 11.48 44.8712 11.3178 44.7942C11.2222 44.7487 11.1277 44.7032 11.0273 44.6635C10.8488 44.5935 10.6633 44.5398 10.4755 44.492C10.3845 44.4687 10.2982 44.4395 10.206 44.422C9.92367 44.3672 9.63317 44.3333 9.33333 44.3333C9.0335 44.3333 8.743 44.3672 8.45833 44.422C8.36617 44.4395 8.27867 44.4698 8.18883 44.492C7.99983 44.5398 7.8155 44.5935 7.637 44.6635C7.53783 44.7032 7.44333 44.7487 7.3465 44.7942C7.1855 44.8712 7.02917 44.954 6.87867 45.0485C6.78767 45.1057 6.699 45.1617 6.61267 45.2247C6.46567 45.3308 6.328 45.4475 6.19383 45.57C6.1215 45.6365 6.04683 45.6983 5.978 45.7695C5.8275 45.9258 5.69217 46.0938 5.565 46.27C5.52883 46.3202 5.48567 46.3645 5.45067 46.4158C5.29667 46.6468 5.16367 46.8918 5.05283 47.1485C5.02133 47.2208 5.00267 47.299 4.97467 47.3737C4.91867 47.5253 4.85567 47.6747 4.81483 47.8333H2.33333V42H22.1667C22.8118 42 23.3333 41.4785 23.3333 40.8333V33.8333H28.6837L33.8333 38.983V47.8333Z"
              fill="#1AB394"/>
        <path d="M68.8333 0H61.8333C61.1882 0 60.6667 0.5215 60.6667 1.16667V14.5203L53.6667 18.8953V15.1667C53.6667 14.7432 53.4368 14.3523 53.0647 14.1458C52.696 13.9417 52.241 13.951 51.8805 14.1773L44.3333 18.8953V15.1667C44.3333 14.7432 44.1035 14.3523 43.7313 14.1458C43.3615 13.9417 42.9077 13.951 42.5472 14.1773L33.2138 20.0107C32.8743 20.2242 32.6667 20.5975 32.6667 21V30.3333C32.6667 30.9785 33.1882 31.5 33.8333 31.5H43.1667H52.5H61.8333H68.8333C69.4785 31.5 70 30.9785 70 30.3333V18.6667V1.16667C70 0.5215 69.4785 0 68.8333 0ZM42 21V29.1667H35V21.6475L42 17.2725V21ZM51.3333 21V29.1667H44.3333V21.6475L51.3333 17.2725V21ZM60.6667 18.6667V29.1667H53.6667V21.6475L60.6667 17.2725V18.6667ZM67.6667 29.1667H63V19.8333H67.6667V29.1667ZM67.6667 17.5H63V15.1667V2.33333H67.6667V17.5Z"
              fill="#1AB394"/>
        <path d="M62.6442 38.2969C62.5275 39.0342 62.3782 39.7739 62.202 40.4914L64.4688 41.0456C64.659 40.2662 64.82 39.4659 64.9483 38.6679L62.6442 38.2969Z" fill="#1AB394"/>
        <path d="M63 33.8335C63 34.5848 62.9708 35.3373 62.9113 36.0712L65.2377 36.2578C65.3018 35.4622 65.3333 34.6455 65.3333 33.8335H63Z" fill="#1AB394"/>
        <path d="M59.8419 46.7646C59.5 47.4226 59.1255 48.076 58.7277 48.7071L60.7028 49.9485C61.1333 49.2636 61.5405 48.5566 61.9104 47.8426L59.8419 46.7646Z" fill="#1AB394"/>
        <path d="M61.5848 42.644C61.3503 43.3499 61.0843 44.0545 60.795 44.7394L62.944 45.6482C63.2578 44.9074 63.546 44.1432 63.7991 43.3779L61.5848 42.644Z" fill="#1AB394"/>
        <path d="M15.1037 12.103C14.4947 12.6339 13.9008 13.1939 13.3397 13.7655L15.0057 15.3989C15.5237 14.8704 16.072 14.3535 16.6367 13.8624L15.1037 12.103Z" fill="#1AB394"/>
        <path d="M44.6682 6.24072L43.925 8.45272C44.6274 8.68722 45.3297 8.95672 46.0157 9.25072L46.9362 7.10639C46.1907 6.78789 45.4277 6.49622 44.6682 6.24072Z" fill="#1AB394"/>
        <path d="M19.005 9.22168C18.3237 9.64518 17.6482 10.1037 16.996 10.5843L18.3832 12.4615C18.984 12.017 19.607 11.5935 20.2347 11.2038L19.005 9.22168Z" fill="#1AB394"/>
        <path d="M8.911 19.5186C8.505 20.1987 8.11533 20.9174 7.75366 21.6524L9.84783 22.6826C10.1815 22.0047 10.5408 21.3421 10.9142 20.7144L8.911 19.5186Z" fill="#1AB394"/>
        <path d="M11.7122 15.5635C11.1907 16.1876 10.6925 16.834 10.2317 17.485L12.1368 18.8336C12.5627 18.2305 13.0223 17.6343 13.503 17.058L11.7122 15.5635Z" fill="#1AB394"/>
        <path d="M35.1318 4.6665L35.1225 6.99984C35.8727 7.00334 36.6252 7.036 37.3602 7.09784L37.5562 4.77384C36.7605 4.70617 35.945 4.67 35.1318 4.6665Z" fill="#1AB394"/>
        <path d="M39.963 5.07178L39.5826 7.37361C40.3235 7.49611 41.0608 7.64778 41.7748 7.82744L42.3395 5.56294C41.5636 5.36928 40.7645 5.20361 39.963 5.07178Z" fill="#1AB394"/>
        <path d="M49.126 8.15039L48.0363 10.2154C48.6908 10.5596 49.343 10.9376 49.9753 11.3389L51.2237 9.36839C50.54 8.93322 49.8342 8.52489 49.126 8.15039Z" fill="#1AB394"/>
        <path d="M32.7087 4.75049C31.9002 4.81232 31.0893 4.90565 30.3007 5.02699L30.6588 7.33349C31.3892 7.21915 32.1382 7.13399 32.8848 7.07682L32.7087 4.75049Z" fill="#1AB394"/>
        <path d="M23.31 7.00146C22.5691 7.3118 21.8295 7.65713 21.112 8.02696L22.1806 10.1001C22.8433 9.7583 23.527 9.44096 24.2095 9.15513L23.31 7.00146Z" fill="#1AB394"/>
        <path d="M27.9207 5.49756C27.1402 5.68306 26.3538 5.90589 25.5838 6.15673L26.3083 8.37339C27.0177 8.14239 27.7422 7.93706 28.4608 7.76556L27.9207 5.49756Z" fill="#1AB394"/>
        <path d="M24.3483 61.2163L23.5258 63.3991C24.2807 63.6838 25.0565 63.9416 25.8312 64.1621L26.474 61.9198C25.7612 61.7145 25.046 61.4776 24.3483 61.2163Z" fill="#1AB394"/>
        <path d="M20.3035 59.3062L19.1415 61.3292C19.8438 61.7317 20.5672 62.1085 21.2928 62.4515L22.2892 60.341C21.6183 60.0248 20.9498 59.6772 20.3035 59.3062Z" fill="#1AB394"/>
        <path d="M28.6498 62.4492L28.189 64.737C28.9823 64.8969 29.7873 65.0264 30.5842 65.1221L30.8618 62.8051C30.1268 62.7176 29.3837 62.5974 28.6498 62.4492Z" fill="#1AB394"/>
        <path d="M13.6885 54.04L11.977 55.6255C12.4087 56.0922 12.8578 56.546 13.3187 56.9859L14.9275 55.2954C14.5017 54.8905 14.0887 54.4705 13.6885 54.04Z" fill="#1AB394"/>
        <path d="M16.611 56.7734L15.1433 58.5876C15.7745 59.0986 16.4278 59.5863 17.087 60.0378L18.4065 58.1151C17.7998 57.6963 17.1943 57.2459 16.611 56.7734Z" fill="#1AB394"/>
    </g>
    <defs>
        <clipPath id="clip0">
            <rect fill="white" height="70" width="70"/>
        </clipPath>
    </defs>
</svg>
