<svg fill="none" height="70" viewBox="0 0 70 70" width="70" xmlns="http://www.w3.org/2000/svg">
    <path d="M53.3127 47.7086H56.6798C57.8488 47.7086 58.7994 46.5769 58.7994 45.1853C58.7994 43.7942 57.8488 42.6625 56.6798 42.6625H38.8555C38.4026 42.6625 38.0352 43.0999 38.0352 43.6391C38.0352 44.1782 38.4026 44.6156 38.8555 44.6156H56.6798C56.9438 44.6156 57.1588 44.871 57.1588 45.1853C57.1588 45.4996 56.9438 45.7555 56.6798 45.7555H27.5621C26.6718 45.7555 25.8604 45.1726 25.4451 44.2342C25.0303 43.2963 25.085 42.1707 25.5878 41.2963L26.7773 39.2288L28.0415 39.0492L26.3774 41.9408C26.071 42.4738 26.0394 43.1325 26.2919 43.7032C26.5453 44.2743 27.0204 44.6156 27.5621 44.6156H39.3123C39.7656 44.6156 40.6002 44.3727 40.6002 43.8336C40.6002 43.2944 43.6382 43.0002 39.3123 42.6625H27.9509L29.8607 39.3447C29.9671 39.1601 30.0504 38.9617 30.1115 38.7552L48.6959 36.1134L52.2275 35.6124C54.8884 35.233 56.8947 32.5419 56.8947 29.3528L56.8492 25.0088C56.8492 24.4697 56.5273 24.7792 56.0744 24.7792C55.6215 24.7792 55.2541 25.2166 55.2541 25.7558V26.2283L45.2792 27.0136L44.8682 21.2605L55.2541 21.1863V26.2283C55.2541 26.7674 55.5473 25.5002 56.0002 25.5002C56.4531 25.5002 56.8947 29.3528 56.8947 21.8343V20.2097C56.8947 20.2056 56.8951 20.2021 56.8951 20.198L56.8947 20.1889V14.834C56.8947 13.4343 55.9753 12.2802 54.8016 12.2065L30.9237 10.7009C30.9139 10.7004 30.9041 10.6994 30.8942 10.6994L19.0211 9.95072L18.8365 8.96196C18.5413 7.37809 17.4843 6.16553 16.144 5.87307L13.5023 5.29679L13.6245 4.4718C13.6694 4.16764 13.6125 3.86094 13.4639 3.60866C13.3152 3.35588 13.0926 3.18752 12.8375 3.13361L5.72089 1.63977C5.06634 1.50244 4.40582 1.67639 3.86108 2.1306C3.31635 2.5848 2.95276 3.26382 2.8374 4.04354C2.599 5.65283 3.50476 7.19244 4.85657 7.47626L11.9732 8.97009C12.03 8.98179 12.0864 8.9879 12.142 8.9879C12.6034 8.9879 13.0136 8.5932 13.0969 8.03371L13.2173 7.21991L15.8483 7.79364C16.5388 7.94419 17.0831 8.56879 17.2352 9.38462L21.8033 33.8963L21.8037 33.8984L22.5061 37.6673C22.7129 38.7766 23.5306 39.5406 24.462 39.5406C24.5125 39.5406 24.5629 39.5375 24.6137 39.5329L24.2343 40.1926C23.3862 41.6666 23.2939 43.5643 23.9938 45.1446C24.694 46.7259 26.0612 47.7081 27.5621 47.7081H28.4837V48.2182C26.2112 48.6836 24.4761 51.0452 24.4761 53.8813C24.4761 57.0505 26.6418 59.6288 29.304 59.6288C31.9658 59.6288 34.1319 57.0505 34.1319 53.8813C34.1319 52.4653 33.6953 51.1047 32.9027 50.0503C32.6006 49.6485 32.0824 49.6139 31.7444 49.9735C31.4069 50.3331 31.3779 50.9506 31.6804 51.3524C32.2033 52.0482 32.4913 52.9464 32.4913 53.8813C32.4913 55.9738 31.0613 57.6756 29.304 57.6756C27.5468 57.6756 26.1168 55.9738 26.1168 53.8813C26.1168 52.1265 27.1225 50.6469 28.4837 50.2151V51.3148C27.6147 51.7094 26.9948 52.7099 26.9948 53.8813C26.9948 55.3975 28.0304 56.6309 29.304 56.6309C30.5776 56.6309 31.6133 55.3975 31.6133 53.8813C31.6133 52.7099 30.9933 51.71 30.1243 51.3148V47.7086H51.6721V48.2187C49.3995 48.6836 47.6645 51.0452 47.6645 53.8813C47.6645 57.0505 49.8302 59.6293 52.4924 59.6293C55.1545 59.6293 57.3203 57.0505 57.3203 53.8813C57.3203 52.4653 56.884 51.1047 56.0915 50.0503C55.7894 49.6485 55.2708 49.6144 54.9332 49.974C54.5957 50.3336 54.5667 50.9506 54.8687 51.3529C55.3917 52.0487 55.6801 52.9464 55.6801 53.8813C55.6801 55.9738 54.2501 57.6761 52.4928 57.6761C50.7351 57.6761 49.3051 55.9738 49.3051 53.8813C49.3051 52.127 50.3113 50.6469 51.6725 50.2151V51.3148C50.803 51.7094 50.1831 52.7099 50.1831 53.8813C50.1831 55.3975 51.2192 56.6309 52.4928 56.6309C53.766 56.6309 54.8021 55.3975 54.8021 53.8813C54.8021 52.7099 54.1821 51.71 53.3131 51.3148L53.3127 47.7086ZM5.14154 5.55263C4.68054 5.45599 4.37207 4.93109 4.45325 4.38279C4.49255 4.11678 4.61646 3.88536 4.80188 3.73023C4.94629 3.61019 5.1142 3.54763 5.2868 3.54763C5.33636 3.54763 5.38635 3.55272 5.43591 3.5634L11.892 4.91838L11.5972 6.90812L5.14154 5.55263ZM34.9266 36.1038L34.1003 29.8502L43.7808 29.0883L44.188 34.7875L34.9266 36.1038ZM55.2541 28.186V29.3523C55.2541 31.5536 53.869 33.4111 52.0331 33.6725L45.8179 34.556L45.418 28.9596L55.2541 28.186ZM43.6415 27.1423L33.8444 27.9129L32.9762 21.345L43.2224 21.2722L43.6415 27.1423ZM21.1603 21.4294L31.3172 21.3567L32.2007 28.0426L22.5343 28.803L21.1603 21.4294ZM42.6597 13.3967L43.0831 19.3196L32.7186 19.3934L31.8359 12.7141L42.6597 13.3967ZM55.2541 14.8335V19.2332L44.7289 19.3079L44.314 13.5009L54.7149 14.1566C55.0174 14.1759 55.2541 14.4729 55.2541 14.8335ZM30.1611 12.6088L31.0596 19.4056L20.7967 19.4788L19.3902 11.9298L30.1611 12.6088ZM24.1074 37.2441L22.894 30.7322L32.4567 29.9794L33.2966 36.3352L29.3211 36.9003L29.3138 36.9008L26.2133 37.3418L26.2082 37.3428L24.5103 37.5839C24.3219 37.6103 24.1489 37.4649 24.1074 37.2441ZM29.3036 54.6778C28.9349 54.6778 28.6349 54.3202 28.6349 53.8813C28.6349 53.4423 28.9349 53.0853 29.3036 53.0853C29.6727 53.0853 29.9727 53.4423 29.9727 53.8813C29.9727 54.3202 29.6723 54.6778 29.3036 54.6778ZM52.4924 54.6778C52.1237 54.6778 51.8233 54.3202 51.8233 53.8813C51.8233 53.4423 52.1237 53.0853 52.4924 53.0853C52.8611 53.0853 53.161 53.4423 53.161 53.8813C53.161 54.3202 52.8611 54.6778 52.4924 54.6778Z"
          fill="#1AB394"/>
</svg>
