<svg fill="none" height="70" viewBox="0 0 70 70" width="70" xmlns="http://www.w3.org/2000/svg">
    <path d="M56.6699 25.7749H52.2629L53.5907 10.5294C53.5931 10.5018 53.5935 10.4746 53.5937 10.4474L53.594 10.4406C53.594 10.0256 53.3436 9.65881 52.9757 9.4998L52.9664 9.49543C52.9436 9.48586 52.9199 9.47766 52.8961 9.46973C52.8873 9.46685 52.8788 9.4633 52.8699 9.46057C52.8505 9.45469 52.8305 9.45004 52.8107 9.44525C52.7967 9.44197 52.7834 9.43801 52.7693 9.43527C52.7519 9.43185 52.7339 9.42967 52.7161 9.42707C52.6994 9.42461 52.683 9.42174 52.6662 9.42023L52.6578 9.41914C52.6398 9.4175 52.622 9.41777 52.6041 9.41709C52.5921 9.41668 52.5803 9.41531 52.5683 9.41531H52.5554H52.5523L27.4819 9.41528C26.9159 9.41528 28.4211 9.87469 28.4211 10.4407C28.4211 11.0054 26.9159 11.4661 27.4819 11.4661H51.4506L49.4099 34.8964L49.4094 34.9017L48.8945 40.8136H13.2642L13.8602 34.6615H20.6443C21.2108 34.6615 21.6697 34.2024 21.6697 33.6361C21.6697 33.0698 21.2108 32.6107 20.6443 32.6107H14.059L15.3173 19.623H26.1147C26.6812 19.623 27.1401 19.1639 27.1401 18.5977C27.1401 18.0314 26.6812 17.5723 26.1147 17.5723H15.5161L16.1079 11.4661H27.4819C28.0466 11.4661 28.5073 11.0054 28.5073 10.4407C28.5073 9.87469 28.0466 9.41528 27.4819 9.41528L15.1772 9.41531C14.6955 9.41517 14.2762 9.75438 14.1752 10.2244L14.1726 10.2345C14.1674 10.2601 14.164 10.2862 14.1606 10.3125C14.1596 10.3208 14.1578 10.3287 14.157 10.3371L14.1563 10.3419L13.4558 17.5723H1.02539C0.458967 17.5723 0 18.0314 0 18.5977C0 19.1639 0.458967 19.623 1.02539 19.623H13.257L11.9986 32.6107H8.34015C7.77372 32.6107 7.31476 33.0698 7.31476 33.6361C7.31476 34.2024 7.77372 34.6615 8.34015 34.6615H11.8L11.1147 41.7327L11.1145 41.7359L10.055 52.6706L10.0546 52.6743L10.0542 52.6782C10.0528 52.6924 10.053 52.7064 10.0521 52.7206C10.0512 52.7395 10.0493 52.7579 10.0493 52.7771L10.0494 52.7797C10.0494 52.806 10.0513 52.832 10.0532 52.858C10.0541 52.8663 10.0538 52.8748 10.0547 52.883C10.0575 52.9095 10.062 52.9357 10.0668 52.9616C10.0681 52.9693 10.0688 52.9771 10.0703 52.9846C10.0743 53.0043 10.0799 53.0233 10.0851 53.0426C10.0887 53.0561 10.0915 53.0699 10.0956 53.0832C10.0969 53.0869 10.0985 53.0904 10.0996 53.0943C10.1492 53.2468 10.2334 53.3838 10.3434 53.4957L10.3491 53.5019C10.36 53.5129 10.3719 53.5227 10.3834 53.5331C10.4541 53.5979 10.5339 53.6529 10.6213 53.696C10.6395 53.705 10.6574 53.7144 10.676 53.7222C10.6816 53.7247 10.6876 53.7263 10.6934 53.7285C10.7191 53.7387 10.7449 53.7486 10.7716 53.7569L10.7788 53.7588C10.8092 53.7679 10.8398 53.7758 10.8711 53.7822C10.8752 53.783 10.8794 53.7833 10.8834 53.7841C10.9132 53.7897 10.9431 53.7945 10.9736 53.7975L10.9756 53.7978C11.0092 53.8011 11.0425 53.8027 11.0756 53.8027L15.6419 53.8026C16.146 57.6243 19.4225 60.5843 23.3798 60.5843C27.3369 60.5843 30.6134 57.6243 31.1174 53.8026H47.5646C48.0689 57.6243 51.3452 60.5843 55.3024 60.5843C59.2595 60.5843 62.5362 57.6243 63.0404 53.8026H67.6063L67.6085 53.8027C67.6427 53.8027 67.6763 53.8007 67.7097 53.7974C67.7157 53.7969 67.7214 53.7956 67.7274 53.7949C67.7541 53.7918 67.7806 53.7881 67.8066 53.7829C67.8178 53.7807 67.8286 53.7777 67.8397 53.7751C67.8598 53.7705 67.88 53.7655 67.8997 53.7597C67.9131 53.7557 67.9261 53.7511 67.9392 53.7465C67.956 53.7408 67.9729 53.7348 67.9894 53.7281C68.0036 53.7225 68.0172 53.7163 68.031 53.7102C68.046 53.7032 68.0611 53.6961 68.0757 53.6886C68.0896 53.6815 68.103 53.6741 68.1164 53.6664C68.1305 53.6582 68.1444 53.6497 68.1583 53.641C68.1711 53.6328 68.184 53.6245 68.1963 53.6157C68.2102 53.606 68.2235 53.5957 68.237 53.5853C68.2482 53.5765 68.2596 53.5677 68.2705 53.5584C68.2846 53.5465 68.2978 53.5341 68.3112 53.5214C68.3205 53.5125 68.3303 53.5037 68.3393 53.4944C68.3535 53.4799 68.367 53.4646 68.3806 53.4492C68.3878 53.4408 68.3953 53.4328 68.4023 53.4243C68.4173 53.4057 68.431 53.3866 68.4447 53.3673C68.4493 53.3606 68.4545 53.3543 68.459 53.3475C68.4757 53.3224 68.4914 53.2967 68.5059 53.2702L68.5088 53.2653C68.5243 53.2368 68.5385 53.2077 68.5512 53.1777C68.5547 53.169 68.5575 53.1602 68.5609 53.1515C68.5692 53.1303 68.5774 53.1092 68.5844 53.0871C68.5889 53.0729 68.5922 53.0583 68.5962 53.0439C68.6007 53.0268 68.6055 53.0099 68.6093 52.9925C68.6127 52.9771 68.6149 52.9612 68.6175 52.9455C68.6198 52.9317 68.6228 52.9182 68.6246 52.9041C68.6681 52.5557 69.471 46.1136 69.8297 41.9481C69.8301 41.9441 69.8302 41.94 69.8306 41.936C69.9338 40.7352 70 39.7241 70 39.105C70 31.7548 64.0202 25.7749 56.6699 25.7749ZM52.0842 27.8259H56.2791L55.7433 33.9778H51.5484L52.0842 27.8259ZM23.3801 58.5334C20.2059 58.5334 17.6235 55.951 17.6235 52.7769C17.6235 49.6029 20.206 47.0205 23.3801 47.0205C26.5542 47.0205 29.1365 49.6029 29.1365 52.7769C29.1365 55.951 26.5542 58.5334 23.3801 58.5334ZM55.3024 58.5334C52.1283 58.5334 49.5461 55.951 49.5461 52.7769C49.5461 49.6029 52.1285 47.0205 55.3024 47.0205C58.4766 47.0205 61.059 49.6029 61.059 52.7769C61.059 55.951 58.4766 58.5334 55.3024 58.5334ZM66.7003 51.7511H63.0407C62.5368 47.9291 59.2602 44.969 55.3027 44.969C51.3455 44.969 48.0689 47.9293 47.5649 51.7511H31.1179C30.6139 47.9291 27.3374 44.969 23.3801 44.969C19.4228 44.969 16.146 47.9293 15.6421 51.7511H12.2044L13.0656 42.8638H49.8342C49.8685 42.8638 49.904 42.8625 49.9377 42.859C49.944 42.8585 49.9501 42.8571 49.9564 42.8563C49.9832 42.8532 50.0099 42.8493 50.0361 42.8441C50.0475 42.8418 50.0585 42.8387 50.0697 42.8359C50.0903 42.831 50.1108 42.8262 50.1307 42.8202C50.1444 42.8161 50.1574 42.8112 50.1706 42.8065C50.1879 42.8005 50.2051 42.7946 50.2218 42.7878C50.2361 42.7819 50.2499 42.7754 50.2639 42.7688C50.2791 42.7618 50.2942 42.7549 50.3089 42.7472C50.3228 42.7398 50.3365 42.7319 50.3503 42.724C50.3644 42.7158 50.3783 42.7074 50.392 42.6987C50.4053 42.6901 50.4178 42.681 50.4305 42.672C50.4441 42.6624 50.4572 42.6526 50.4703 42.6423C50.4821 42.6329 50.4937 42.6232 50.5052 42.6132C50.5182 42.602 50.5309 42.5905 50.5432 42.5786C50.5536 42.5686 50.564 42.5584 50.5741 42.5479C50.5864 42.535 50.5983 42.5217 50.6101 42.5082C50.6192 42.4975 50.6282 42.4869 50.637 42.4759C50.6483 42.4616 50.6591 42.4468 50.6698 42.4319C50.6779 42.4207 50.6857 42.4095 50.6933 42.398C50.7033 42.3826 50.7129 42.3667 50.722 42.3506C50.729 42.3385 50.7361 42.3265 50.7424 42.3142C50.751 42.2981 50.7584 42.2817 50.7662 42.2651C50.7722 42.2519 50.7784 42.2389 50.7838 42.2252C50.7905 42.2091 50.7961 42.1925 50.802 42.176C50.8071 42.1614 50.8124 42.1467 50.8169 42.1317C50.8214 42.1158 50.8251 42.0996 50.8292 42.0834C50.8332 42.0672 50.8376 42.051 50.8407 42.0345C50.8438 42.0183 50.8458 42.0019 50.8482 41.9855C50.8507 41.9686 50.8536 41.9519 50.8552 41.9347L50.8562 41.9274L51.3701 36.028H56.6696C59.8113 36.028 61.2282 37.6558 62.7282 39.3793C63.9659 40.8013 65.3477 42.3879 67.6966 42.775C67.3982 45.9291 66.916 49.9781 66.7003 51.7511ZM67.8718 40.7201C66.3481 40.4094 65.4106 39.3382 64.2749 38.0334C62.8545 36.4016 61.1205 34.4103 57.7964 34.0393L58.3269 27.9487C63.7634 28.7528 67.9492 33.4488 67.9492 39.1053C67.9492 39.4896 67.9205 40.048 67.8718 40.7201Z"
          fill="#1AB394"/>
    <path d="M9.70711 25.7754H4.69416C4.12773 25.7754 3.66876 26.2345 3.66876 26.8008C3.66876 27.3671 4.12773 27.8262 4.69416 27.8262H9.70711C10.2735 27.8262 10.7325 27.3671 10.7325 26.8008C10.7325 26.2345 10.2735 25.7754 9.70711 25.7754Z"
          fill="#1AB394"/>
    <g clip-path="url(#clip0)">
        <path d="M44.9882 25.7373C44.7051 25.7373 44.4755 25.9668 44.4755 26.25C44.4755 30.5093 41.0103 33.9745 36.751 33.9745C32.4916 33.9745 29.0264 30.5093 29.0264 26.25C29.0264 21.9906 32.4916 18.5254 36.751 18.5254C38.0497 18.5254 39.3131 18.8479 40.4409 19.4624L39.8 20.1033C39.6533 20.25 39.6095 20.4705 39.6888 20.6621C39.7682 20.8537 39.9551 20.9786 40.1625 20.9786H42.6156C42.8988 20.9786 43.1283 20.749 43.1283 20.4659V18.0127C43.1283 17.8054 43.0034 17.6184 42.8118 17.5391C42.6202 17.4597 42.3997 17.5036 42.2531 17.6502L41.193 18.7104C39.8501 17.9175 38.3233 17.5001 36.7509 17.5001C34.4137 17.5001 32.2164 18.4102 30.5638 20.0628C28.9111 21.7155 28.001 23.9128 28.001 26.25C28.001 28.5872 28.9111 30.7845 30.5638 32.4372C32.2164 34.0898 34.4137 35 36.7509 35C39.0881 35 41.2854 34.0898 42.9381 32.4372C44.5907 30.7845 45.5008 28.5872 45.5008 26.25C45.5009 25.9668 45.2714 25.7373 44.9882 25.7373Z"
              fill="#1AB394"/>
        <path d="M40.0449 25.738H37.2627V22.9558C37.2627 22.6727 37.0331 22.4431 36.75 22.4431C36.4669 22.4431 36.2373 22.6727 36.2373 22.9558V26.2507C36.2373 26.5339 36.4669 26.7634 36.75 26.7634H40.0449C40.328 26.7634 40.5576 26.5339 40.5576 26.2507C40.5576 25.9676 40.328 25.738 40.0449 25.738Z"
              fill="#1AB394"/>
    </g>
    <defs>
        <clipPath id="clip0">
            <rect fill="white" height="17.5" width="17.5" x="28" y="17.5"/>
        </clipPath>
    </defs>
</svg>
