<svg fill="none" height="54" viewBox="0 0 66 54" width="66" xmlns="http://www.w3.org/2000/svg">
    <path d="M65.5107 1.08908C65.3641 0.935489 65.1761 0.827855 64.9694 0.779302C64.7628 0.730749 64.5465 0.743375 64.3469 0.815641L0.909409 23.7844C0.697518 23.8606 0.51431 24.0003 0.384801 24.1845C0.255291 24.3687 0.185791 24.5884 0.185791 24.8136C0.185791 25.0388 0.255291 25.2585 0.384801 25.4427C0.51431 25.6269 0.697518 25.7666 0.909409 25.8428L15.6422 31.1027L19.8969 52.375C19.945 52.6126 20.0708 52.8275 20.2543 52.9858C20.4378 53.1442 20.6687 53.2371 20.9108 53.25H20.9688C21.2465 53.2464 21.5124 53.1364 21.7114 52.9427C21.7202 52.9372 36.0855 38.6922 36.0855 38.6922L47.9986 42.2666C48.2577 42.3442 48.5363 42.3231 48.7807 42.2074C49.0251 42.0916 49.218 41.8894 49.3221 41.6399L65.7283 2.26486C65.8101 2.0689 65.833 1.85338 65.7944 1.64459C65.7557 1.4358 65.6571 1.24278 65.5107 1.08908ZM55.7336 6.26033L16.4844 29.0781L4.51331 24.806L55.7336 6.26033ZM21.2017 47.7441L17.8199 30.8336L53.6719 9.99002L25.7277 33.8239C25.5912 33.9749 25.4784 34.1456 25.393 34.3303L21.2017 47.7441ZM23.328 48.2724L27.1561 36.0147L33.6978 37.9769L23.328 48.2724ZM47.6825 39.8877L28.6753 34.186L61.8477 5.89064L47.6825 39.8877Z"
          fill="#00B395"/>
</svg>
