<svg fill="none" height="70" viewBox="0 0 70 70" width="70" xmlns="http://www.w3.org/2000/svg">
    <g clip-path="url(#clip0)">
        <path d="M33.1573 30.5244H45.4501C46.7058 30.5244 47.7273 31.546 47.7273 32.8016V36.1599C47.7273 36.3976 47.5346 36.5902 47.297 36.5902H31.3105C31.0728 36.5902 30.8802 36.3975 30.8802 36.1599V32.8016C30.8801 31.546 31.9017 30.5244 33.1573 30.5244ZM31.7409 35.7295H46.8666V32.8016C46.8666 32.0206 46.2312 31.3851 45.4501 31.3851H33.1573C32.3763 31.3851 31.7408 32.0205 31.7408 32.8016V35.7295H31.7409Z"
              fill="#1AB394"/>
        <path d="M31.7837 17.5255L36.5338 12.7754C36.6145 12.6948 36.724 12.6494 36.8381 12.6494C36.9523 12.6494 37.0617 12.6948 37.1424 12.7754L43.0735 18.7066C43.2416 18.8746 43.2416 19.1471 43.0735 19.3152L38.3235 24.0652C38.2395 24.1492 38.1293 24.1912 38.0192 24.1912C37.909 24.1912 37.7989 24.1492 37.7148 24.0653L31.7837 18.1342C31.6157 17.9661 31.6157 17.6936 31.7837 17.5255ZM38.0192 23.1523L42.1606 19.0109L36.8382 13.6884L32.6967 17.8299L38.0192 23.1523Z"
              fill="#1AB394"/>
        <path d="M37.754 23.4176L42.4253 18.7462C42.9477 18.2239 43.7976 18.2239 44.3199 18.7462C44.5729 18.9993 44.7123 19.3357 44.7123 19.6935C44.7123 20.0514 44.5729 20.3877 44.3199 20.6407L39.6485 25.3122C39.3874 25.5733 39.0443 25.7039 38.7013 25.7039C38.3582 25.7039 38.0152 25.5733 37.754 25.3122C37.5009 25.0592 37.3615 24.7228 37.3615 24.365C37.3615 24.0072 37.5009 23.6707 37.754 23.4176ZM38.3627 24.7034C38.5494 24.8902 38.8532 24.8902 39.04 24.7034L43.7114 20.032C43.8018 19.9415 43.8516 19.8213 43.8516 19.6934C43.8516 19.5655 43.8019 19.4452 43.7114 19.3547C43.5246 19.168 43.2209 19.168 43.0341 19.3547L38.3627 24.0262C38.176 24.2129 38.176 24.5167 38.3627 24.7034Z"
              fill="#1AB394"/>
        <path d="M30.5371 16.2005L35.2084 11.5291C35.4615 11.2761 35.7979 11.1367 36.1557 11.1367C36.5136 11.1367 36.85 11.2761 37.103 11.529C37.3561 11.782 37.4954 12.1185 37.4954 12.4763C37.4954 12.8342 37.3561 13.1705 37.103 13.4236L32.4317 18.0949H32.4317C32.1706 18.3561 31.8275 18.4866 31.4844 18.4866C31.1414 18.4866 30.7984 18.3561 30.5371 18.095C30.0148 17.5727 30.0148 16.7227 30.5371 16.2005ZM31.1458 17.4863C31.3326 17.6731 31.6363 17.6731 31.8231 17.4863L36.4944 12.8149C36.5849 12.7245 36.6347 12.6042 36.6347 12.4763C36.6347 12.3483 36.5849 12.2281 36.4944 12.1376C36.404 12.0472 36.2837 11.9973 36.1557 11.9973C36.0278 11.9973 35.9075 12.0471 35.8171 12.1376L31.1458 16.8089C30.959 16.9957 30.959 17.2995 31.1458 17.4863Z"
              fill="#1AB394"/>
        <path d="M22.7297 30.9101V30.91L33.9488 19.691C34.0296 19.6103 34.139 19.5649 34.2531 19.5649C34.3673 19.5649 34.4767 19.6103 34.5574 19.691L36.1583 21.2919C36.3264 21.4599 36.3264 21.7324 36.1583 21.9004L24.9392 33.1196C24.6346 33.4241 24.2346 33.5764 23.8345 33.5764C23.4344 33.5764 23.0343 33.4241 22.7297 33.1195C22.1206 32.5104 22.1206 31.5192 22.7297 30.9101ZM23.3383 32.5109C23.612 32.7845 24.0571 32.7845 24.3306 32.5109L35.2454 21.5961L34.2531 20.6039L23.3383 31.5187C23.0648 31.7922 23.0648 32.2374 23.3383 32.5109Z"
              fill="#1AB394"/>
    </g>
    <path d="M61.6862 3.18164H8.31379C6.95318 3.18375 5.64873 3.92937 4.68663 5.25493C3.72453 6.58049 3.18335 8.37773 3.18182 10.2523V47.02C3.18335 48.8946 3.72453 50.6919 4.68663 52.0174C5.64873 53.343 6.95318 54.0886 8.31379 54.0907H27.5793L26.7247 59.7473H21.6569C21.3847 59.7473 21.1236 59.8963 20.9311 60.1615C20.7386 60.4267 20.6305 60.7864 20.6305 61.1614V65.4039C20.6305 65.7789 20.7386 66.1386 20.9311 66.4038C21.1236 66.669 21.3847 66.818 21.6569 66.818H48.3431C48.6153 66.818 48.8764 66.669 49.0689 66.4038C49.2614 66.1386 49.3695 65.7789 49.3695 65.4039V61.1614C49.3695 60.7864 49.2614 60.4267 49.0689 60.1615C48.8764 59.8963 48.6153 59.7473 48.3431 59.7473H43.0544L42.37 54.0907H61.6862C63.0468 54.0886 64.3513 53.343 65.3134 52.0174C66.2755 50.6919 66.8167 48.8946 66.8182 47.02V10.2523C66.8167 8.37773 66.2755 6.58049 65.3134 5.25493C64.3513 3.92937 63.0468 3.18375 61.6862 3.18164V3.18164ZM5.23461 10.2523C5.23553 9.12757 5.56023 8.04923 6.13749 7.2539C6.71475 6.45856 7.49742 6.01119 8.31379 6.00992H61.6862C62.5026 6.01123 63.2852 6.45862 63.8625 7.25395C64.4397 8.04927 64.7645 9.12759 64.7654 10.2523V41.3635H5.23461V10.2523ZM47.3167 63.9897H22.6833V62.5756H47.3167V63.9897ZM40.9732 59.7473H28.821L29.6762 54.0907H40.2889L40.9732 59.7473ZM64.7654 47.02C64.7645 48.1448 64.4397 49.2231 63.8625 50.0184C63.2852 50.8137 62.5026 51.2611 61.6862 51.2624H8.31379C7.49742 51.2612 6.71475 50.8138 6.13749 50.0185C5.56023 49.2231 5.23553 48.1448 5.23461 47.02V44.1917H64.7654V47.02Z"
          fill="#1AB394"/>
    <defs>
        <clipPath id="clip0">
            <rect fill="white" height="25.4545" transform="matrix(-1 0 0 1 47.7273 11.1362)" width="25.4545"/>
        </clipPath>
    </defs>
</svg>
