<svg fill="none" height="70" viewBox="0 0 70 70" width="70" xmlns="http://www.w3.org/2000/svg">
    <path d="M53.5938 21.875H42.6562C41.4959 21.875 40.3831 21.4141 39.5627 20.5936C38.7422 19.7731 38.2812 18.6603 38.2812 17.5V6.5625C38.2812 6.27242 38.3965 5.99422 38.6016 5.7891C38.8067 5.58398 39.0849 5.46875 39.375 5.46875C39.6651 5.46875 39.9433 5.58398 40.1484 5.7891C40.3535 5.99422 40.4688 6.27242 40.4688 6.5625V17.5C40.4688 18.0802 40.6992 18.6366 41.1095 19.0468C41.5197 19.457 42.0761 19.6875 42.6562 19.6875H53.5938C53.8838 19.6875 54.162 19.8027 54.3671 20.0079C54.5723 20.213 54.6875 20.4912 54.6875 20.7812C54.6875 21.0713 54.5723 21.3495 54.3671 21.5546C54.162 21.7598 53.8838 21.875 53.5938 21.875Z"
          fill="#00B395"/>
    <path d="M54.6875 63.4375C54.3974 63.4375 54.1192 63.3223 53.9141 63.1171C53.709 62.912 53.5938 62.6338 53.5938 62.3438C53.5938 62.0537 53.709 61.7755 53.9141 61.5704C54.1192 61.3652 54.3974 61.25 54.6875 61.25C55.8478 61.25 56.9606 60.7891 57.7811 59.9686C58.6016 59.1481 59.0625 58.0353 59.0625 56.875V24.0625C59.0631 22.2166 58.3858 20.4348 57.1594 19.0553L44.0191 4.27219C43.4357 3.6169 42.7204 3.09239 41.92 2.73311C41.1196 2.37383 40.2523 2.18789 39.375 2.1875H15.3125C14.1522 2.1875 13.0394 2.64844 12.2189 3.46891C11.3984 4.28938 10.9375 5.40218 10.9375 6.5625V56.875C10.9375 58.0353 11.3984 59.1481 12.2189 59.9686C13.0394 60.7891 14.1522 61.25 15.3125 61.25C15.6026 61.25 15.8808 61.3652 16.0859 61.5704C16.291 61.7755 16.4062 62.0537 16.4062 62.3438C16.4062 62.6338 16.291 62.912 16.0859 63.1171C15.8808 63.3223 15.6026 63.4375 15.3125 63.4375C13.5725 63.4358 11.9044 62.7438 10.674 61.5135C9.4437 60.2831 8.75174 58.615 8.75 56.875V6.5625C8.75174 4.82255 9.4437 3.15436 10.674 1.92403C11.9044 0.6937 13.5725 0.00173735 15.3125 0L39.375 0C40.5612 0.000336421 41.7339 0.251763 42.8159 0.737747C43.898 1.22373 44.8649 1.93326 45.6531 2.81969L58.7858 17.5941C60.373 19.3748 61.25 21.677 61.25 24.0625V56.875C61.2483 58.615 60.5563 60.2831 59.326 61.5135C58.0956 62.7438 56.4275 63.4358 54.6875 63.4375V63.4375Z"
          fill="#00B395"/>
    <path d="M35.0003 70C31.5742 69.9992 28.215 69.0517 25.2934 67.2623C22.3718 65.4729 20.0014 62.9111 18.4438 59.8596C16.8862 56.8081 16.202 53.3856 16.4667 49.9698C16.7314 46.554 17.9347 43.2777 19.9438 40.5026C21.9528 37.7275 24.6896 35.5614 27.852 34.2434C31.0144 32.9254 34.4794 32.5068 37.8647 33.0337C41.2499 33.5607 44.4238 35.0127 47.036 37.2295C49.6482 39.4463 51.5971 42.3418 52.6676 45.5963C52.7582 45.8718 52.7357 46.1721 52.6049 46.4311C52.4742 46.6901 52.2459 46.8865 51.9703 46.9771C51.6948 47.0678 51.3945 47.0452 51.1355 46.9145C50.8765 46.7837 50.6801 46.5554 50.5895 46.2799C49.3032 42.3563 46.5857 39.0615 42.9787 37.0519C39.3716 35.0424 35.1398 34.4658 31.1266 35.4369C27.1134 36.4081 23.6135 38.8557 21.3243 42.2921C19.0351 45.7284 18.1247 49.9012 18.7746 53.9787C19.4245 58.0563 21.5869 61.7393 24.8309 64.2938C28.0749 66.8483 32.1623 68.0866 36.2785 67.7621C40.3948 67.4376 44.2377 65.5741 47.0413 62.5429C49.845 59.5116 51.4036 55.5353 51.4065 51.4063C51.4065 51.1162 51.5217 50.838 51.7269 50.6329C51.932 50.4277 52.2102 50.3125 52.5003 50.3125C52.7903 50.3125 53.0685 50.4277 53.2737 50.6329C53.4788 50.838 53.594 51.1162 53.594 51.4063C53.5885 56.3359 51.6278 61.0621 48.1419 64.548C44.6561 68.0338 39.9299 69.9945 35.0003 70V70Z"
          fill="#00B395"/>
    <path d="M33.0663 61.4882C32.6351 61.4891 32.208 61.4046 31.8097 61.2396C31.4113 61.0745 31.0496 60.8323 30.7453 60.5268L26.1057 55.8904C25.2852 55.0699 24.8242 53.957 24.8242 52.7967C24.8242 51.6363 25.2852 50.5235 26.1057 49.703C26.9262 48.8825 28.039 48.4216 29.1993 48.4216C30.3597 48.4216 31.4725 48.8825 32.293 49.703L33.0663 50.4763L37.7071 45.8279C38.541 45.0332 39.6488 44.5898 40.8007 44.5898C41.9527 44.5898 43.0605 45.0332 43.8944 45.8279C44.3007 46.2341 44.623 46.7164 44.8429 47.2472C45.0627 47.7781 45.1759 48.347 45.1759 48.9215C45.1759 49.4961 45.0627 50.065 44.8429 50.5958C44.623 51.1266 44.3007 51.6089 43.8944 52.0152L35.3872 60.5224C35.0833 60.8287 34.7218 61.0718 34.3234 61.2375C33.925 61.4033 33.4978 61.4885 33.0663 61.4882V61.4882ZM29.2032 50.6065C28.7707 50.6066 28.348 50.7348 27.9884 50.9751C27.6288 51.2153 27.3485 51.5567 27.1829 51.9562C27.0173 52.3557 26.9738 52.7953 27.0579 53.2195C27.142 53.6436 27.35 54.0334 27.6555 54.3394L32.2963 58.9802C32.5045 59.1793 32.7815 59.2904 33.0696 59.2904C33.3577 59.2904 33.6346 59.1793 33.8428 58.9802L42.3511 50.4719C42.7612 50.0617 42.9916 49.5054 42.9916 48.9254C42.9916 48.3453 42.7612 47.789 42.3511 47.3788C42.148 47.1756 41.9068 47.0144 41.6414 46.9044C41.3759 46.7944 41.0914 46.7378 40.804 46.7378C40.5167 46.7378 40.2322 46.7944 39.9667 46.9044C39.7012 47.0144 39.4601 47.1756 39.2569 47.3788L33.8428 52.7929C33.6377 52.9979 33.3596 53.1131 33.0696 53.1131C32.7795 53.1131 32.5014 52.9979 32.2963 52.7929L30.7497 51.2463C30.5468 51.043 30.3058 50.8818 30.0403 50.772C29.7749 50.6621 29.4904 50.6059 29.2032 50.6065Z"
          fill="#00B395"/>
</svg>
